<mxfile host="app.diagrams.net" modified="2023-03-29T23:28:25.703Z" agent="Mozilla/5.0 (Windows NT 10.0; Win64; x64) AppleWebKit/537.36 (KHTML, like Gecko) Chrome/111.0.0.0 Safari/537.36" etag="iHxVLixa4BqwpdegNpZF" version="21.1.2" type="device">
  <diagram id="U-40oIPW442R1rDFBDPh" name="Page-1">
    <mxGraphModel dx="882" dy="596" grid="1" gridSize="10" guides="1" tooltips="1" connect="1" arrows="1" fold="1" page="1" pageScale="1" pageWidth="850" pageHeight="1100" math="0" shadow="0">
      <root>
        <mxCell id="0" />
        <mxCell id="1" parent="0" />
        <mxCell id="LOVEPXF6xlJ6mI6rSbKo-1" style="edgeStyle=orthogonalEdgeStyle;rounded=0;orthogonalLoop=1;jettySize=auto;html=1;exitX=1;exitY=0.5;exitDx=0;exitDy=0;entryX=0;entryY=0.5;entryDx=0;entryDy=0;" parent="1" source="LOVEPXF6xlJ6mI6rSbKo-3" target="LOVEPXF6xlJ6mI6rSbKo-5" edge="1">
          <mxGeometry relative="1" as="geometry" />
        </mxCell>
        <mxCell id="LOVEPXF6xlJ6mI6rSbKo-2" style="edgeStyle=orthogonalEdgeStyle;rounded=0;orthogonalLoop=1;jettySize=auto;html=1;exitX=0.5;exitY=0;exitDx=0;exitDy=0;entryX=0;entryY=0.5;entryDx=0;entryDy=0;" parent="1" source="LOVEPXF6xlJ6mI6rSbKo-3" target="LOVEPXF6xlJ6mI6rSbKo-13" edge="1">
          <mxGeometry relative="1" as="geometry" />
        </mxCell>
        <mxCell id="5qzXht5pkpY3Tl_MoIdr-2" style="edgeStyle=orthogonalEdgeStyle;rounded=0;orthogonalLoop=1;jettySize=auto;html=1;exitX=0.5;exitY=1;exitDx=0;exitDy=0;entryX=0;entryY=0.5;entryDx=0;entryDy=0;" edge="1" parent="1" source="LOVEPXF6xlJ6mI6rSbKo-3" target="LOVEPXF6xlJ6mI6rSbKo-15">
          <mxGeometry relative="1" as="geometry" />
        </mxCell>
        <mxCell id="LOVEPXF6xlJ6mI6rSbKo-3" value="User" style="rounded=1;whiteSpace=wrap;html=1;" parent="1" vertex="1">
          <mxGeometry x="40" y="200" width="120" height="60" as="geometry" />
        </mxCell>
        <mxCell id="5qzXht5pkpY3Tl_MoIdr-21" style="edgeStyle=orthogonalEdgeStyle;rounded=0;orthogonalLoop=1;jettySize=auto;html=1;exitX=1;exitY=0.5;exitDx=0;exitDy=0;entryX=-0.004;entryY=0.392;entryDx=0;entryDy=0;entryPerimeter=0;" edge="1" parent="1" source="LOVEPXF6xlJ6mI6rSbKo-5" target="5qzXht5pkpY3Tl_MoIdr-3">
          <mxGeometry relative="1" as="geometry" />
        </mxCell>
        <mxCell id="LOVEPXF6xlJ6mI6rSbKo-5" value="Load balancer" style="rounded=1;whiteSpace=wrap;html=1;" parent="1" vertex="1">
          <mxGeometry x="200" y="200" width="120" height="60" as="geometry" />
        </mxCell>
        <mxCell id="LOVEPXF6xlJ6mI6rSbKo-12" style="edgeStyle=orthogonalEdgeStyle;rounded=0;orthogonalLoop=1;jettySize=auto;html=1;exitX=0;exitY=0.5;exitDx=0;exitDy=0;entryX=0.5;entryY=0;entryDx=0;entryDy=0;" parent="1" source="LOVEPXF6xlJ6mI6rSbKo-13" target="LOVEPXF6xlJ6mI6rSbKo-3" edge="1">
          <mxGeometry relative="1" as="geometry" />
        </mxCell>
        <mxCell id="LOVEPXF6xlJ6mI6rSbKo-13" value="DNS" style="rounded=1;whiteSpace=wrap;html=1;" parent="1" vertex="1">
          <mxGeometry x="200" y="120" width="120" height="60" as="geometry" />
        </mxCell>
        <mxCell id="LOVEPXF6xlJ6mI6rSbKo-14" style="edgeStyle=orthogonalEdgeStyle;rounded=0;orthogonalLoop=1;jettySize=auto;html=1;exitX=0;exitY=0.5;exitDx=0;exitDy=0;entryX=0.5;entryY=1;entryDx=0;entryDy=0;" parent="1" source="LOVEPXF6xlJ6mI6rSbKo-15" target="LOVEPXF6xlJ6mI6rSbKo-3" edge="1">
          <mxGeometry relative="1" as="geometry" />
        </mxCell>
        <mxCell id="LOVEPXF6xlJ6mI6rSbKo-15" value="CDN" style="rounded=1;whiteSpace=wrap;html=1;" parent="1" vertex="1">
          <mxGeometry x="200" y="280" width="120" height="60" as="geometry" />
        </mxCell>
        <mxCell id="5qzXht5pkpY3Tl_MoIdr-19" style="edgeStyle=orthogonalEdgeStyle;rounded=0;orthogonalLoop=1;jettySize=auto;html=1;exitX=1;exitY=0.5;exitDx=0;exitDy=0;" edge="1" parent="1" source="5qzXht5pkpY3Tl_MoIdr-3" target="5qzXht5pkpY3Tl_MoIdr-11">
          <mxGeometry relative="1" as="geometry" />
        </mxCell>
        <mxCell id="5qzXht5pkpY3Tl_MoIdr-34" style="edgeStyle=orthogonalEdgeStyle;rounded=0;orthogonalLoop=1;jettySize=auto;html=1;exitX=0.5;exitY=1;exitDx=0;exitDy=0;entryX=0.5;entryY=0;entryDx=0;entryDy=0;" edge="1" parent="1" source="5qzXht5pkpY3Tl_MoIdr-3" target="5qzXht5pkpY3Tl_MoIdr-31">
          <mxGeometry relative="1" as="geometry" />
        </mxCell>
        <mxCell id="5qzXht5pkpY3Tl_MoIdr-3" value="" style="swimlane;startSize=0;" vertex="1" parent="1">
          <mxGeometry x="360" y="160" width="120" height="180" as="geometry" />
        </mxCell>
        <mxCell id="LOVEPXF6xlJ6mI6rSbKo-16" value="Tweet service" style="rounded=1;whiteSpace=wrap;html=1;" parent="5qzXht5pkpY3Tl_MoIdr-3" vertex="1">
          <mxGeometry width="120" height="60" as="geometry" />
        </mxCell>
        <mxCell id="LOVEPXF6xlJ6mI6rSbKo-9" value="Timeline service" style="rounded=1;whiteSpace=wrap;html=1;" parent="5qzXht5pkpY3Tl_MoIdr-3" vertex="1">
          <mxGeometry y="60" width="120" height="60" as="geometry" />
        </mxCell>
        <mxCell id="LOVEPXF6xlJ6mI6rSbKo-17" value="Search service" style="rounded=1;whiteSpace=wrap;html=1;" parent="5qzXht5pkpY3Tl_MoIdr-3" vertex="1">
          <mxGeometry y="120" width="120" height="60" as="geometry" />
        </mxCell>
        <mxCell id="5qzXht5pkpY3Tl_MoIdr-24" style="edgeStyle=orthogonalEdgeStyle;rounded=0;orthogonalLoop=1;jettySize=auto;html=1;exitX=1;exitY=0.5;exitDx=0;exitDy=0;entryX=0;entryY=0.5;entryDx=0;entryDy=0;" edge="1" parent="1" source="5qzXht5pkpY3Tl_MoIdr-5" target="5qzXht5pkpY3Tl_MoIdr-7">
          <mxGeometry relative="1" as="geometry" />
        </mxCell>
        <mxCell id="5qzXht5pkpY3Tl_MoIdr-5" value="Karka" style="rounded=1;whiteSpace=wrap;html=1;" vertex="1" parent="1">
          <mxGeometry x="360" y="40" width="120" height="60" as="geometry" />
        </mxCell>
        <mxCell id="5qzXht5pkpY3Tl_MoIdr-6" style="edgeStyle=orthogonalEdgeStyle;rounded=0;orthogonalLoop=1;jettySize=auto;html=1;exitX=0.5;exitY=0;exitDx=0;exitDy=0;entryX=0.5;entryY=1;entryDx=0;entryDy=0;" edge="1" parent="1" source="LOVEPXF6xlJ6mI6rSbKo-16" target="5qzXht5pkpY3Tl_MoIdr-5">
          <mxGeometry relative="1" as="geometry" />
        </mxCell>
        <mxCell id="5qzXht5pkpY3Tl_MoIdr-27" style="edgeStyle=orthogonalEdgeStyle;rounded=0;orthogonalLoop=1;jettySize=auto;html=1;exitX=1;exitY=0.5;exitDx=0;exitDy=0;entryX=0;entryY=0.5;entryDx=0;entryDy=0;" edge="1" parent="1" source="5qzXht5pkpY3Tl_MoIdr-7" target="5qzXht5pkpY3Tl_MoIdr-14">
          <mxGeometry relative="1" as="geometry" />
        </mxCell>
        <mxCell id="5qzXht5pkpY3Tl_MoIdr-7" value="Event processor" style="rounded=1;whiteSpace=wrap;html=1;" vertex="1" parent="1">
          <mxGeometry x="520" y="40" width="120" height="60" as="geometry" />
        </mxCell>
        <mxCell id="5qzXht5pkpY3Tl_MoIdr-38" style="edgeStyle=orthogonalEdgeStyle;rounded=0;orthogonalLoop=1;jettySize=auto;html=1;exitX=0.5;exitY=1;exitDx=0;exitDy=0;entryX=0;entryY=0.5;entryDx=0;entryDy=0;" edge="1" parent="1" source="5qzXht5pkpY3Tl_MoIdr-9" target="5qzXht5pkpY3Tl_MoIdr-37">
          <mxGeometry relative="1" as="geometry" />
        </mxCell>
        <mxCell id="5qzXht5pkpY3Tl_MoIdr-9" value="" style="swimlane;startSize=0;" vertex="1" parent="1">
          <mxGeometry x="520" y="160" width="120" height="240" as="geometry" />
        </mxCell>
        <mxCell id="5qzXht5pkpY3Tl_MoIdr-10" value="MySQL" style="rounded=1;whiteSpace=wrap;html=1;" vertex="1" parent="5qzXht5pkpY3Tl_MoIdr-9">
          <mxGeometry width="120" height="60" as="geometry" />
        </mxCell>
        <mxCell id="5qzXht5pkpY3Tl_MoIdr-11" value="FlockDB" style="rounded=1;whiteSpace=wrap;html=1;" vertex="1" parent="5qzXht5pkpY3Tl_MoIdr-9">
          <mxGeometry y="60" width="120" height="60" as="geometry" />
        </mxCell>
        <mxCell id="5qzXht5pkpY3Tl_MoIdr-12" value="Blob store" style="rounded=1;whiteSpace=wrap;html=1;" vertex="1" parent="1">
          <mxGeometry x="520" y="280" width="120" height="60" as="geometry" />
        </mxCell>
        <mxCell id="5qzXht5pkpY3Tl_MoIdr-13" value="Rock DB" style="rounded=1;whiteSpace=wrap;html=1;" vertex="1" parent="1">
          <mxGeometry x="520" y="340" width="120" height="60" as="geometry" />
        </mxCell>
        <mxCell id="5qzXht5pkpY3Tl_MoIdr-28" style="edgeStyle=orthogonalEdgeStyle;rounded=0;orthogonalLoop=1;jettySize=auto;html=1;exitX=0.5;exitY=1;exitDx=0;exitDy=0;entryX=0.5;entryY=0;entryDx=0;entryDy=0;" edge="1" parent="1" source="5qzXht5pkpY3Tl_MoIdr-14" target="5qzXht5pkpY3Tl_MoIdr-15">
          <mxGeometry relative="1" as="geometry" />
        </mxCell>
        <mxCell id="5qzXht5pkpY3Tl_MoIdr-14" value="Pub-sub" style="rounded=1;whiteSpace=wrap;html=1;" vertex="1" parent="1">
          <mxGeometry x="680" y="40" width="120" height="60" as="geometry" />
        </mxCell>
        <mxCell id="5qzXht5pkpY3Tl_MoIdr-29" style="edgeStyle=orthogonalEdgeStyle;rounded=0;orthogonalLoop=1;jettySize=auto;html=1;exitX=0.5;exitY=1;exitDx=0;exitDy=0;entryX=0.5;entryY=0;entryDx=0;entryDy=0;" edge="1" parent="1" source="5qzXht5pkpY3Tl_MoIdr-15" target="5qzXht5pkpY3Tl_MoIdr-16">
          <mxGeometry relative="1" as="geometry" />
        </mxCell>
        <mxCell id="5qzXht5pkpY3Tl_MoIdr-30" style="edgeStyle=orthogonalEdgeStyle;rounded=0;orthogonalLoop=1;jettySize=auto;html=1;exitX=1;exitY=0.5;exitDx=0;exitDy=0;entryX=1;entryY=0.5;entryDx=0;entryDy=0;" edge="1" parent="1" source="5qzXht5pkpY3Tl_MoIdr-15" target="5qzXht5pkpY3Tl_MoIdr-17">
          <mxGeometry relative="1" as="geometry" />
        </mxCell>
        <mxCell id="5qzXht5pkpY3Tl_MoIdr-15" value="Dataflow" style="rounded=1;whiteSpace=wrap;html=1;" vertex="1" parent="1">
          <mxGeometry x="680" y="120" width="120" height="60" as="geometry" />
        </mxCell>
        <mxCell id="5qzXht5pkpY3Tl_MoIdr-16" value="BigTable" style="rounded=1;whiteSpace=wrap;html=1;" vertex="1" parent="1">
          <mxGeometry x="680" y="200" width="120" height="60" as="geometry" />
        </mxCell>
        <mxCell id="5qzXht5pkpY3Tl_MoIdr-17" value="BigQuery" style="rounded=1;whiteSpace=wrap;html=1;" vertex="1" parent="1">
          <mxGeometry x="680" y="280" width="120" height="60" as="geometry" />
        </mxCell>
        <mxCell id="5qzXht5pkpY3Tl_MoIdr-20" style="edgeStyle=orthogonalEdgeStyle;rounded=0;orthogonalLoop=1;jettySize=auto;html=1;exitX=0;exitY=0.5;exitDx=0;exitDy=0;entryX=1;entryY=0.5;entryDx=0;entryDy=0;" edge="1" parent="1" source="5qzXht5pkpY3Tl_MoIdr-11" target="5qzXht5pkpY3Tl_MoIdr-3">
          <mxGeometry relative="1" as="geometry" />
        </mxCell>
        <mxCell id="5qzXht5pkpY3Tl_MoIdr-23" style="edgeStyle=orthogonalEdgeStyle;rounded=0;orthogonalLoop=1;jettySize=auto;html=1;exitX=1;exitY=0.5;exitDx=0;exitDy=0;entryX=0.25;entryY=0;entryDx=0;entryDy=0;" edge="1" parent="1" source="5qzXht5pkpY3Tl_MoIdr-22" target="LOVEPXF6xlJ6mI6rSbKo-16">
          <mxGeometry relative="1" as="geometry">
            <Array as="points">
              <mxPoint x="340" y="70" />
              <mxPoint x="340" y="120" />
              <mxPoint x="390" y="120" />
            </Array>
          </mxGeometry>
        </mxCell>
        <mxCell id="5qzXht5pkpY3Tl_MoIdr-22" value="Zookeeper" style="rounded=1;whiteSpace=wrap;html=1;" vertex="1" parent="1">
          <mxGeometry x="200" y="40" width="120" height="60" as="geometry" />
        </mxCell>
        <mxCell id="5qzXht5pkpY3Tl_MoIdr-33" style="edgeStyle=orthogonalEdgeStyle;rounded=0;orthogonalLoop=1;jettySize=auto;html=1;exitX=0.5;exitY=0;exitDx=0;exitDy=0;entryX=0.5;entryY=1;entryDx=0;entryDy=0;" edge="1" parent="1" source="5qzXht5pkpY3Tl_MoIdr-31" target="5qzXht5pkpY3Tl_MoIdr-3">
          <mxGeometry relative="1" as="geometry" />
        </mxCell>
        <mxCell id="5qzXht5pkpY3Tl_MoIdr-36" style="edgeStyle=orthogonalEdgeStyle;rounded=0;orthogonalLoop=1;jettySize=auto;html=1;exitX=0;exitY=0.5;exitDx=0;exitDy=0;entryX=1;entryY=0.5;entryDx=0;entryDy=0;" edge="1" parent="1" source="5qzXht5pkpY3Tl_MoIdr-31" target="5qzXht5pkpY3Tl_MoIdr-32">
          <mxGeometry relative="1" as="geometry" />
        </mxCell>
        <mxCell id="5qzXht5pkpY3Tl_MoIdr-31" value="Apache Lucene" style="rounded=1;whiteSpace=wrap;html=1;" vertex="1" parent="1">
          <mxGeometry x="360" y="400" width="120" height="60" as="geometry" />
        </mxCell>
        <mxCell id="5qzXht5pkpY3Tl_MoIdr-35" style="edgeStyle=orthogonalEdgeStyle;rounded=0;orthogonalLoop=1;jettySize=auto;html=1;exitX=1;exitY=0.5;exitDx=0;exitDy=0;entryX=0;entryY=0.5;entryDx=0;entryDy=0;" edge="1" parent="1" source="5qzXht5pkpY3Tl_MoIdr-32" target="5qzXht5pkpY3Tl_MoIdr-31">
          <mxGeometry relative="1" as="geometry" />
        </mxCell>
        <mxCell id="5qzXht5pkpY3Tl_MoIdr-32" value="Index server" style="rounded=1;whiteSpace=wrap;html=1;" vertex="1" parent="1">
          <mxGeometry x="200" y="400" width="120" height="60" as="geometry" />
        </mxCell>
        <mxCell id="5qzXht5pkpY3Tl_MoIdr-39" style="edgeStyle=orthogonalEdgeStyle;rounded=0;orthogonalLoop=1;jettySize=auto;html=1;exitX=0;exitY=0.5;exitDx=0;exitDy=0;entryX=0.5;entryY=1;entryDx=0;entryDy=0;" edge="1" parent="1" source="5qzXht5pkpY3Tl_MoIdr-37" target="5qzXht5pkpY3Tl_MoIdr-9">
          <mxGeometry relative="1" as="geometry" />
        </mxCell>
        <mxCell id="5qzXht5pkpY3Tl_MoIdr-37" value="Manhattan DB" style="rounded=1;whiteSpace=wrap;html=1;" vertex="1" parent="1">
          <mxGeometry x="680" y="400" width="120" height="60" as="geometry" />
        </mxCell>
      </root>
    </mxGraphModel>
  </diagram>
</mxfile>
